<svg width="4104" height="649" viewBox="0 0 4104 649" fill="none" xmlns="http://www.w3.org/2000/svg">
<path fill-rule="evenodd" clip-rule="evenodd" d="M4104 0.5H2206.29V648.5H4104V0.5ZM2985.3 62.2146L2847.16 586.786H2762.74L2662.97 272.126L2555.16 586.786H2469.7L2329.71 62.2146H2436.54L2517.59 393.019L2616.93 62.2146H2701.35L2801.11 394.919L2877.86 62.2146H2985.3ZM3184.84 586.786H3091.31V219.42L3184.84 303.634V586.786ZM3091.31 62.2146V118.031L3184.84 202.244V62.2146H3091.31ZM3614.62 586.786H3737.41L3537.87 379.57L3699.04 218.404H3591.59L3438.1 364.22V62.2146H3338.33V586.786H3438.1V471.664L3468.8 440.966L3541.71 513.876L3614.62 586.786ZM3913.93 586.786H3814.16V236.067L3913.93 325.899V586.786ZM3814.16 62.2146V134.677L3913.93 224.509V62.2146H3814.16Z" fill="white"/>
<path fill-rule="evenodd" clip-rule="evenodd" d="M1944 159.851V16H1850.54L1850.56 75.6104L1944 159.851ZM1850.63 633H1944V276.794L1850.57 192.575L1850.63 633ZM0.0924691 633H93.4589V276.794L0.0273611 192.575L0.0924691 633ZM93.4589 159.851V16H0L0.0164952 75.6104L93.4589 159.851ZM268.594 16V633H362.042L361.972 102.627L546.607 102.606C620.86 102.638 681.043 162.448 681.043 236.221C681.043 309.95 620.93 369.733 546.732 369.836L385.83 369.814L677.793 633H807.516L604.86 450.324C702.178 427.06 774.49 340.038 774.49 236.221C774.49 114.597 675.249 16 552.824 16H268.594ZM925.366 633H1018.73V276.794L925.3 192.575L925.366 633ZM1018.73 159.851V16H925.273L925.279 75.6104L1018.73 159.851ZM1675.21 633V16H1581.76L1581.83 546.373L1397.2 546.4C1322.94 546.367 1262.76 486.557 1262.76 412.779C1262.76 339.05 1322.87 279.267 1397.07 279.164L1557.97 279.186L1461.89 192.569L1390.98 192.559C1268.56 192.559 1169.31 291.156 1169.31 412.779C1169.31 534.409 1268.56 633 1390.98 633H1675.21Z" fill="white"/>
</svg>
