<svg width="4104" height="648" viewBox="0 0 4104 648" fill="none" xmlns="http://www.w3.org/2000/svg">
<path fill-rule="evenodd" clip-rule="evenodd" d="M1944 143.851V0H1850.54L1850.56 59.6104L1944 143.851ZM1850.63 617H1944V260.794L1850.57 176.575L1850.63 617ZM0.0924691 617H93.4589V260.794L0.0273611 176.575L0.0924691 617ZM93.4589 143.851V0H0L0.0164952 59.6104L93.4589 143.851ZM268.594 0V617H362.042L361.972 86.6273L546.607 86.6057C620.86 86.6382 681.043 146.448 681.043 220.221C681.043 293.95 620.93 353.733 546.732 353.836L385.83 353.814L677.793 617H807.516L604.86 434.324C702.178 411.06 774.49 324.038 774.49 220.221C774.49 98.5968 675.249 0 552.824 0H268.594ZM925.366 617H1018.73V260.794L925.3 176.575L925.366 617ZM1018.73 143.851V0H925.273L925.279 59.6104L1018.73 143.851ZM1675.21 617V0H1581.76L1581.83 530.373L1397.2 530.4C1322.94 530.367 1262.76 470.557 1262.76 396.779C1262.76 323.05 1322.87 263.267 1397.07 263.164L1557.97 263.186L1461.89 176.569L1390.98 176.559C1268.56 176.559 1169.31 275.156 1169.31 396.779C1169.31 518.409 1268.56 617 1390.98 617H1675.21Z" fill="white"/>
<path fill-rule="evenodd" clip-rule="evenodd" d="M4104 0H2206.29V648H4104V0ZM2985.3 61.7147L2847.16 586.286H2762.74L2662.97 271.626L2555.16 586.286H2469.7L2329.71 61.7147H2436.54L2517.59 392.519L2616.93 61.7147H2701.35L2801.11 394.419L2877.86 61.7147H2985.3ZM3184.84 586.286H3091.31V218.92L3184.84 303.134V586.286ZM3091.31 61.7147V117.53L3184.84 201.744V61.7147H3091.31ZM3614.62 586.286H3737.41L3537.87 379.07L3699.04 217.904H3591.59L3438.1 363.721V61.7147H3338.33V586.286H3438.1V471.164L3468.8 440.466L3541.71 513.376L3614.62 586.286ZM3913.93 586.286H3814.16V235.566L3913.93 325.399V586.286ZM3814.16 61.7147V134.177L3913.93 224.009V61.7147H3814.16Z" fill="white"/>
</svg>
