<svg width="788" height="123" viewBox="0 0 788 123" fill="none" xmlns="http://www.w3.org/2000/svg">
<path fill-rule="evenodd" clip-rule="evenodd" d="M373.263 27.3051V0H355.318L355.321 11.3149L373.263 27.3051ZM355.336 117.116H373.263V49.5026L355.324 33.5165L355.336 117.116ZM0.0177548 117.116H17.9448V49.5026L0.00525354 33.5165L0.0177548 117.116ZM17.9448 27.3051V0H0L0.00316721 11.3149L17.9448 27.3051ZM51.5722 0V117.116H69.5149L69.5014 16.4432L104.953 16.439C119.21 16.4452 130.765 27.7981 130.765 41.8011C130.765 55.796 119.223 67.1438 104.977 67.1632L74.0823 67.1591L130.141 117.116H155.049L116.138 82.4412C134.824 78.0253 148.708 61.5073 148.708 41.8011C148.708 18.7151 129.653 0 106.147 0H51.5722ZM177.677 117.116H195.605V49.5026L177.665 33.5165L177.677 117.116ZM195.605 27.3051V0H177.66L177.661 11.3149L195.605 27.3051ZM321.653 117.116V0H303.71L303.724 100.673L268.273 100.678C254.016 100.672 242.459 89.3187 242.459 75.3146C242.459 61.3197 254.001 49.972 268.248 49.9525L299.143 49.9566L280.693 33.5155L267.079 33.5134C243.572 33.5134 224.516 52.2286 224.516 75.3146C224.516 98.4016 243.572 117.116 267.079 117.116H321.653Z" fill="url(#paint0_linear_341_2)"/>
<path fill-rule="evenodd" clip-rule="evenodd" d="M788 0H423.624V123H788V0ZM573.202 11.7143L546.678 111.286H530.468L511.312 51.5586L490.611 111.286H474.202L447.324 11.7143H467.836L483.397 74.5059L502.47 11.7143H518.68L537.836 74.8665L552.572 11.7143H573.202ZM611.515 111.286H593.557V41.5545L611.515 57.5394V111.286ZM593.557 11.7143V22.3092L611.515 38.2942V11.7143H593.557ZM694.035 111.286H717.612L679.299 71.953L710.245 41.3614H689.614L660.143 69.0395V11.7143H640.986V111.286H660.143V89.4339L666.037 83.607L680.036 97.4464L694.035 111.286ZM751.505 111.286H732.348V44.7143L751.505 61.7658V111.286ZM732.348 11.7143V25.469L751.505 42.5206V11.7143H732.348Z" fill="url(#paint1_linear_341_2)"/>
<defs>
<linearGradient id="paint0_linear_341_2" x1="0" y1="58.5579" x2="373.263" y2="58.5579" gradientUnits="userSpaceOnUse">
<stop stop-color="#0057B7"/>
<stop offset="1" stop-color="#003E82"/>
</linearGradient>
<linearGradient id="paint1_linear_341_2" x1="423.624" y1="61.5" x2="788" y2="61.5" gradientUnits="userSpaceOnUse">
<stop stop-color="#0057B7"/>
<stop offset="1" stop-color="#003E82"/>
</linearGradient>
</defs>
</svg>
